<svg width="350" height="350" viewBox="0 0 350 350" fill="none" xmlns="http://www.w3.org/2000/svg">
<circle cx="175" cy="175" r="175" fill="#D9D9D9"/>
<path d="M44.0608 74.9885C44.0416 76.0909 44.4867 78.3593 45.0491 80.0783C46.9922 86.0119 46.0817 88.808 42.1983 89.1262C41.1734 89.2186 40.3609 89.4801 40.41 89.7566C40.509 90.2546 47.5709 92.9693 48.8093 92.9909C49.4554 93.0022 54.5607 96.7303 58.1162 99.7698C59.3901 100.84 61.8216 103.474 63.5609 105.654C67.0932 110.017 67.8258 111.242 76.7442 127.939C79.0401 132.17 82.0215 137.239 83.4416 139.194C90.2217 148.796 101.583 170.553 105.484 181.593C107.998 188.75 108.167 191.399 106.322 195.282C104.81 198.563 102.453 207.124 102.349 209.989C102.267 211.586 102.32 211.643 105.491 212.029C112.315 212.92 114.183 213.945 119.362 219.604C122.006 222.407 125.444 225.996 127.033 227.512C128.623 229.029 132.543 232.736 135.668 235.768C141.866 241.721 148.397 247.073 150.271 247.712C150.913 247.944 152.876 249.632 154.622 251.427C156.422 253.223 158.546 254.969 159.401 255.37C161.646 256.347 161.889 257.84 160.176 260.291C158.134 263.122 151.119 270.057 149.218 271.017C148.24 271.496 144.946 271.99 141.117 272.254C130.604 272.897 128.966 274.137 134.677 277.104L138.253 278.986L138.461 282.518C138.795 288.038 139.817 288.111 145.828 283.143C148.342 281.092 150.449 280.687 161.121 280.212C166.295 280.026 171.418 279.675 172.444 279.527C175.197 279.134 176.256 280.2 176.306 283.509C176.398 287.481 177.477 287.389 181.861 283.055C183.888 281.105 186.18 279.381 186.938 279.174C187.694 279.022 199.432 279.226 213.105 279.631C226.724 280.034 249.5 280.376 263.718 280.404C291.94 280.4 291.618 280.339 292.263 283.493C292.851 286.812 293.378 287.483 295.317 287.517C297.47 287.554 297.528 287.335 298.192 280.123C298.79 273.628 298.135 246.378 297.246 241.786C296.85 239.795 296.374 233.115 296.16 226.881C295.945 220.646 295.513 211.486 295.169 206.463C294.216 193.213 294.421 187.648 295.798 185.907C297.008 184.44 297.247 183.066 296.396 182.499C296.076 182.273 295.343 181.102 294.772 179.88C293.94 178.156 293.652 176.166 293.518 171.477C293.394 166.237 293.589 164.31 294.934 158.269C296.399 151.457 296.463 150.852 295.962 145.605C295.136 137.43 294.442 137.032 289.625 141.525C286.175 144.773 283.837 146 282.777 145.044C281.557 143.975 280.884 139.332 281.045 133.159C281.218 126.381 280.708 124.718 278.596 125.397C277.297 125.761 275.86 127.831 269.98 137.653C265.486 145.183 260.423 151.381 258.144 152.333C255.812 153.285 253.83 152.644 249.519 149.702C239.94 143.083 236.016 139.541 220.147 123.054C213.746 116.381 207.076 109.758 205.376 108.405C199.959 104.01 198.491 101.724 200.659 100.935C201.852 100.459 205.619 100.635 207.925 101.227C208.997 101.521 210.827 101.553 211.961 101.408C213.742 101.163 214.07 100.893 214.255 99.5729C214.381 98.5275 214.175 97.9726 213.479 97.7399C210.215 96.525 202.583 92.5322 200.829 91.1783C198.331 89.26 195.911 89.0524 192.388 90.3693C190.218 91.2136 186.125 91.2525 141.541 90.6397C93.6183 89.9686 85.0084 89.5426 75.5601 87.7787C71.1047 86.929 64.037 84.545 61.1555 83.006C60.4085 82.607 57.527 81.068 54.7532 79.5309C51.9784 78.0489 48.5682 75.9493 47.2394 74.9337C45.8568 73.9171 44.6329 73.0686 44.4175 73.0649C44.256 73.0621 44.0791 73.9412 44.0608 74.9885ZM159.445 98.5611C188.403 99.5628 190.175 99.8694 188.225 103.585C186.833 106.207 178.998 113.845 177.321 114.256C176.401 114.516 174.574 114.264 172.699 113.679C171.039 113.154 168.892 112.731 168.031 112.716C167.169 112.701 164.754 112.217 162.718 111.575C160.628 110.988 157.032 110.263 154.666 110.056C152.301 109.795 148.702 109.236 146.609 108.813C144.571 108.336 138.495 107.734 133.169 107.421C127.842 107.107 122.303 106.624 120.8 106.378C108.881 104.185 107.38 103.828 104.445 102.233C102.685 101.265 101.247 100.302 101.252 100.026C101.266 99.2548 105.063 97.7221 107.978 97.3319C110.677 96.9931 122.736 97.2587 159.445 98.5611ZM93.7276 117.649C97.184 120.191 98.2993 121.092 105.892 127.345C108.546 129.542 111.362 131.796 112.213 132.418C113.063 133.039 114.392 134.055 115.189 134.675C117.634 136.537 127.366 143.655 129.23 144.845C130.135 145.467 131.731 146.598 132.741 147.387C133.75 148.177 134.974 149.025 135.399 149.364C135.879 149.648 137.156 150.552 138.22 151.288C141.521 153.496 141.364 156.305 137.617 161.147C136.569 162.562 134.251 165.774 132.536 168.336C130.822 170.898 128.284 174.382 126.906 176.177C125.529 177.918 123.71 180.312 122.935 181.512C121.165 184.182 118.379 186.45 117.145 186.152C116.662 186.034 115.981 184.974 115.571 183.754C115.216 182.535 114.546 180.759 114.133 179.759C113.719 178.814 113.36 177.761 113.367 177.375C113.384 176.383 104.35 153.949 101.754 148.446C100.507 145.832 97.951 141.046 96.1224 137.816C88.9135 125.009 86.4099 117.246 89.0203 115.803C90.326 115.054 90.1125 114.94 93.7276 117.649ZM118.126 117.634C120.648 118.174 123.329 118.828 124.077 119.172C124.826 119.46 127.347 120.056 129.708 120.538C132.07 121.02 134.751 121.674 135.608 121.964C137.266 122.6 143.22 124.027 149.017 125.121C150.788 125.482 152.987 126.017 153.843 126.363C154.753 126.654 156.414 127.179 157.594 127.476C161.668 128.539 162.681 129.164 162.653 130.762C162.621 132.581 159.422 136.881 154.215 142.083C150.049 146.256 148.531 146.836 145.865 145.246C144.479 144.45 132.991 136.144 127.357 131.855C125.337 130.331 121.826 127.789 119.645 126.262C112.249 121.06 110.614 119.102 112.367 117.368C113.19 116.555 112.651 116.546 118.126 117.634ZM208.651 121.309C212.274 123.578 213.609 127.296 210.81 127.247C207.256 127.185 197.262 122.765 197.288 121.276C197.337 118.465 204.123 118.474 208.651 121.309ZM192.95 132.173C193.75 132.628 195.786 133.27 197.45 133.575C199.06 133.934 200.72 134.459 201.039 134.685C201.357 134.966 204.14 136.007 207.245 137.054C210.351 138.101 213.935 139.487 215.272 140.061C216.608 140.636 219.602 141.901 222.009 142.881C227.517 145.127 231.405 147.621 237.08 152.627C247.105 161.459 248.054 162.633 247.412 165.489C247.067 166.751 242.871 172.633 241.563 173.547C241.344 173.709 239.915 175.393 238.318 177.35C236.722 179.307 232.109 184.41 227.996 188.639L220.481 196.447L218.332 196.134C215.86 195.815 214.578 195.241 210.849 192.861C209.411 191.953 207.493 190.762 206.586 190.25C205.733 189.739 203.181 187.875 201.003 186.127C198.825 184.38 196.487 182.575 195.849 182.123C195.21 181.67 192.34 179.47 189.469 177.325C186.599 175.124 182.716 172.355 180.798 171.163C175.631 167.875 160.683 157.193 159.734 156.074C159.259 155.514 159.006 154.573 159.124 153.968C159.423 152.264 178 134.007 180.934 132.515C183.869 130.967 190.497 130.807 192.95 132.173ZM282.86 158.775C284.028 159.787 284.079 159.954 283.343 161.981C282.437 164.502 279.404 168.584 274.848 173.467C268.536 180.249 264.963 184.377 259.346 191.502C252.184 200.64 248.113 205.586 243.5 210.633C241.193 213.24 240.376 213.777 238.922 213.751C238.007 213.735 237.042 213.443 236.833 213.108C236.677 212.775 235.612 212.095 234.542 211.635C227.487 208.534 226.691 207.859 227.48 205.887C227.705 205.34 234.618 198.072 242.788 189.724C261.154 171.188 271.385 162.048 277.093 159.06C280.245 157.406 281.215 157.367 282.86 158.775ZM157.489 164.305C158.654 165.484 161.784 168.185 164.387 170.27C167.042 172.412 170.228 175.059 171.554 176.185C174.632 178.83 182.773 184.541 187.196 187.21C189.063 188.29 190.925 189.59 191.24 190.037C191.609 190.485 192.141 190.88 192.464 190.886C192.733 190.89 195.024 192.364 197.577 194.173C200.077 195.981 203.379 198.134 204.817 199.041C211.212 202.957 213.07 204.478 213.044 205.966C213.027 206.958 212.087 208.376 210.165 210.437C208.574 212.119 203.527 217.379 198.974 222.152C194.42 226.924 188.327 233.489 185.415 236.802C182.504 240.059 179.268 243.366 178.179 244.064C175.509 245.837 172.986 245.352 168.786 242.246C162.405 237.503 162.938 237.843 150.406 230.677C147.794 229.143 141.883 225.29 137.308 222.068C128.476 215.848 127.049 214.28 128.383 211.877C129.164 210.347 128.435 208.9 125.15 205.811C121.971 202.778 121.939 201.564 124.857 197.921C127.389 194.767 127.792 193.285 125.602 195.342C122.153 198.535 120.001 198.387 120.061 194.97C120.081 193.812 120.749 192.611 122.45 190.766C123.714 189.355 125.364 187.399 126.135 186.42C128.064 183.862 133.874 178.119 137.535 175.095C139.229 173.691 143.171 170.01 146.241 166.921C151.558 161.61 151.885 161.396 153.602 161.756C154.568 161.939 156.325 163.127 157.489 164.305ZM287.168 177.376C288.282 184.508 288.689 188.926 288.886 196.152C288.98 200.069 289.366 205.7 289.747 208.573C290.127 211.447 290.616 217.41 290.862 221.826C291.108 226.241 291.57 230.605 291.822 231.602C292.534 234.04 292.941 253.897 292.329 255.044C291.381 256.902 288.061 255.796 284.351 252.368C283.344 251.413 279.416 248.092 275.646 244.993C271.877 241.895 267.63 238.347 266.197 237.109C264.765 235.871 263.066 234.463 262.427 234.011C259.343 231.752 249.299 224.022 246.909 222.106C245.421 220.922 243.942 219.297 243.524 218.518C242.899 217.294 243.014 216.91 244.45 214.84C245.335 213.532 247.152 211.248 248.525 209.728C249.898 208.209 252.099 205.545 253.477 203.75C258.105 197.766 262.992 192.392 272.694 182.747C282.285 173.211 282.395 173.102 284.492 173.304L286.589 173.506L287.168 177.376ZM226.084 214.85C228.36 217.151 228.435 219.027 226.405 221.142C222.785 224.883 217.955 230.092 213.504 235.142C210.922 238.074 206.808 242.358 204.451 244.688C202.042 246.962 198.139 251.47 195.712 254.736C193.34 257.947 191.136 260.831 190.807 261.156C190.479 261.426 189.763 262.351 189.264 263.169C188.765 263.988 186.84 266.27 184.974 268.222C182.122 271.205 181.14 271.905 178.271 272.737C173.453 274.141 165.141 275.154 164.024 274.363C162.214 273.173 162.72 271.914 166.555 268.232C168.582 266.227 173.852 260.53 178.246 255.644C182.586 250.757 188.731 244.303 191.907 241.326C195.083 238.349 202.863 230.766 209.167 224.425C219.526 214.129 220.893 212.94 222.51 212.913C223.802 212.936 224.762 213.449 226.084 214.85ZM239.967 227.94C242.144 229.742 245.224 232.222 246.818 233.463C251.174 236.902 258.557 242.82 260.84 244.735C262.804 246.368 264.293 247.442 268.176 250.266C273.389 253.996 286.833 264.431 288.103 265.722C290.008 267.685 289.932 268.952 287.764 269.741C286.789 270.055 285.108 270.687 284.076 271.165C282.611 271.801 278.353 272.003 264.939 272.154C255.458 272.265 238.757 272.58 227.765 272.829C197.376 273.567 196.193 273.491 195.873 270.232C195.731 269.072 196.286 268.144 197.932 266.408C199.193 265.162 200.183 263.967 200.187 263.746C200.191 263.526 201.901 261.185 203.993 258.575C206.086 255.909 208.289 253.136 208.895 252.374C209.501 251.613 212.204 247.911 214.854 244.208C219.548 237.563 224.777 231.148 229.331 226.321C231.417 224.096 231.688 223.991 233.729 224.302C235.34 224.551 237.047 225.518 239.967 227.94Z" fill="black"/>
</svg>
